<svg xmlns="http://www.w3.org/2000/svg" width="563" height="249" viewBox="0 0 563 249" fill="none"><path d="M7.10001 189.8H63V203.4H20.5V213.1H62V225.1H20.4V234.7H63V248.3H7.10001V189.8Z" fill="#24265A"></path><path d="M70.8 248.3L102 219.1L71.8 189.9H91L111.4 209.6L132.4 189.9H152.3L121.2 219L153 248.3H133L111.2 228.1L90 248.3H70.8Z" fill="#24265A"></path><path d="M198.6 189.8C210.6 189.8 220.2 199.6 220.2 211.4C220.2 223.9 210.5 234 198.6 234H175.3V248.4H161.3V189.9L198.6 189.8ZM175.2 221.2L195.9 221.1C201.3 221.1 205.9 216.5 205.9 211.4C205.9 205.9 201.3 201.7 195.9 201.7L175.2 201.6V221.2Z" fill="#24265A"></path><path d="M229.3 189.8H243.3V234.2H285.2V248.2H229.3V189.8Z" fill="#24265A"></path><path d="M323.1 189.3C341.2 189.3 354.3 202.8 354.3 219.3C354.3 235.6 341.2 249 323.1 249C305.5 249 292.2 235.6 292.2 219.3C292.2 202.8 305.3 189.3 323.1 189.3ZM323.1 236C333.2 236 341.4 228.2 341.4 219.4C341.4 210.4 333.3 202.7 323.1 202.7C313 202.7 304.6 210.4 304.6 219.4C304.6 228.1 313 236 323.1 236Z" fill="#24265A"></path><path d="M402.2 189.7C414.2 189.7 423.8 199.4 423.8 211C423.8 220.2 417.8 228.1 409.8 231.5L424.5 248.3H404.5L393.5 234.2H379V248.4H365V189.9L402.2 189.7ZM379 221.3H399.5C405.1 221.3 409.6 216.4 409.6 211C409.6 206 405.1 201.8 399.5 201.8L379 201.7V221.3Z" fill="#24265A"></path><path d="M436.2 189.8H492.1V203.4H449.6V213.1H491.2V225.1H449.6V234.7H492.1V248.3H436.2V189.8Z" fill="#24265A"></path><path d="M540.1 189.7C552.1 189.7 561.7 199.4 561.7 211C561.7 220.2 555.7 228.1 547.7 231.5L562.4 248.3H542.4L531.4 234.2H516.7V248.4H502.7V189.9L540.1 189.7ZM516.8 221.3H537.3C542.9 221.3 547.4 216.4 547.4 211C547.4 206 542.9 201.8 537.3 201.8L516.8 201.7V221.3Z" fill="#24265A"></path><path d="M525.7 23.6L485.7 105.5L445.9 23.6H410L451.6 108.7H484.2L460.4 157.8H497.2L562.6 23.6H525.7Z" fill="#24265A"></path><path d="M293.2 25.5L311.9 39.1L393.6 6.99998L364.5 22.7L364.6 22.6L361.1 24.5L247.2 85.9V23.6H210.3V157.7V157.8L267.6 111.7L317.4 157.8H364.6L293 91.3L406.4 0.0999756L293.2 25.5Z" fill="#24265A"></path><path d="M130.6 158.8L158.5 157.8V142.3L130.6 158.8Z" fill="#24265A"></path><path d="M88.6 75.3C62.4 74.7 42.9 74.1 42.9 64C43.5 51.9 69.8 50.5 81.7 50.5C109 51.1 116 60.5 120.1 68.7L155.4 59.5C143.7 34.5 118.3 22.6 81.8 22.6C39.1 22.6 7.60001 36.7 7.60001 65.7C7.60001 95.2 41.8 102.8 73.6 103.4L95.9 103.8C114.4 104.2 123.8 108.5 123.6 116.5C123.4 124.9 111.3 128.8 80.3 128.8C43.2 128.8 35 114.9 31.9 106.7L0.100006 115.9C6.90001 137.3 24.3 156.9 70 159.2L158.1 116.6C158.2 115.5 158.3 114.5 158.4 113.3C159.5 79.4 122.2 76.3 88.6 75.3Z" fill="#24265A"></path></svg>