<?xml version="1.0" standalone="no"?>
<!DOCTYPE svg PUBLIC "-//W3C//DTD SVG 20010904//EN"
 "http://www.w3.org/TR/2001/REC-SVG-20010904/DTD/svg10.dtd">
<svg version="1.0" xmlns="http://www.w3.org/2000/svg"
 width="550.000000pt" height="315.000000pt" viewBox="0 0 550.000000 315.000000"
 preserveAspectRatio="xMidYMid meet">

<g transform="translate(0.000000,315.000000) scale(0.100000,-0.100000)"
fill="#000000" stroke="none">
<path d="M3162 2350 c-189 -43 -346 -80 -348 -82 -6 -7 95 -78 110 -78 8 0 25
4 38 10 87 37 432 170 434 167 3 -2 -853 -467 -877 -475 -5 -2 -9 79 -9 192
l0 196 -115 0 -115 0 0 -421 c0 -264 4 -418 10 -414 5 3 84 66 176 140 92 74
170 135 173 135 4 0 77 -65 163 -145 l157 -145 141 0 c78 0 140 4 138 8 -1 5
-101 100 -221 212 -120 111 -215 206 -210 210 4 4 159 128 343 275 326 261
369 296 360 294 -3 -1 -160 -36 -348 -79z"/>
<path d="M1348 2280 c-196 -23 -322 -103 -347 -219 -38 -177 121 -281 431
-281 200 -1 288 -24 296 -79 8 -51 -48 -75 -198 -86 -167 -13 -312 27 -362 99
-12 17 -23 32 -24 34 -6 8 -194 -52 -194 -62 0 -23 60 -114 95 -144 49 -44
122 -79 197 -97 131 -30 127 -31 418 110 146 70 271 133 279 139 18 14 7 89
-20 132 -25 41 -89 80 -161 100 -29 8 -138 19 -243 24 -104 6 -203 13 -220 16
-112 22 -95 107 26 133 72 16 207 13 266 -4 36 -11 62 -27 87 -56 l37 -40 105
27 c57 15 104 32 104 38 -1 23 -70 104 -115 134 -69 45 -143 70 -243 82 -96
11 -117 11 -214 0z"/>
<path d="M3551 2268 c0 -7 58 -128 127 -268 l127 -255 102 -3 101 -3 -69 -144
c-38 -80 -69 -150 -69 -155 0 -7 40 -10 111 -8 l111 3 204 419 c112 230 204
420 204 422 0 2 -51 4 -113 4 l-114 0 -124 -255 c-68 -140 -127 -255 -130
-255 -3 0 -61 115 -129 255 l-123 255 -109 0 c-80 0 -108 -3 -107 -12z"/>
<path d="M1860 1475 l-75 -45 80 2 80 3 3 43 c2 23 0 42 -5 42 -4 0 -42 -20
-83 -45z"/>
<path d="M990 1045 l0 -185 175 0 175 0 0 40 0 39 -132 3 -133 3 0 30 0 30
133 3 132 3 0 34 0 34 -132 3 -133 3 -3 28 -3 27 135 0 136 0 0 45 0 45 -175
0 -175 0 0 -185z"/>
<path d="M1410 1226 c0 -2 41 -43 91 -92 l91 -89 -91 -86 c-50 -47 -91 -89
-91 -92 0 -4 23 -7 52 -7 49 0 54 2 114 60 34 33 68 60 76 60 7 0 40 -27 73
-60 59 -60 60 -60 117 -60 32 0 58 3 57 8 0 4 -41 43 -90 87 -49 44 -89 84
-89 89 0 4 42 48 93 97 l92 88 -61 1 c-55 0 -63 -3 -90 -31 -16 -17 -46 -44
-67 -61 l-37 -30 -66 61 c-63 59 -66 61 -119 61 -30 0 -55 -2 -55 -4z"/>
<path d="M1970 1045 l0 -185 39 0 c40 0 40 0 43 43 l3 42 97 5 c109 6 140 20
170 81 24 46 22 89 -5 130 -38 58 -74 69 -219 69 l-128 0 0 -185z m259 91 c27
-24 27 -60 1 -86 -18 -18 -31 -20 -98 -18 l-77 3 -3 49 c-5 77 -3 79 82 74 55
-2 80 -8 95 -22z"/>
<path d="M2400 1046 l0 -186 175 0 175 0 0 45 0 44 -132 3 -133 3 -2 135 -1
135 -41 3 -41 3 0 -185z"/>
<path d="M2902 1209 c-79 -40 -116 -118 -98 -214 8 -43 59 -103 103 -121 18
-8 57 -14 86 -14 128 0 219 111 188 228 -32 116 -168 176 -279 121z m172 -98
c44 -44 43 -102 -2 -142 -27 -24 -41 -29 -83 -29 -42 0 -55 5 -79 29 -38 38
-46 71 -26 114 34 71 132 86 190 28z"/>
<path d="M3260 1046 l0 -186 40 0 40 0 0 45 0 45 49 0 c47 0 51 -2 82 -45 32
-44 33 -45 91 -45 32 0 58 3 58 6 0 3 -17 26 -39 50 l-39 44 38 38 c47 47 59
98 33 149 -34 69 -57 78 -214 81 l-139 4 0 -186z m262 87 c24 -21 23 -54 -2
-81 -18 -19 -31 -22 -100 -22 l-80 0 0 60 0 60 82 0 c62 0 86 -4 100 -17z"/>
<path d="M3710 1045 l0 -185 175 0 175 0 0 40 0 40 -135 0 -135 0 0 35 0 35
130 0 130 0 0 35 0 35 -130 0 -130 0 0 30 0 29 133 3 132 3 3 43 3 42 -175 0
-176 0 0 -185z"/>
<path d="M4130 1045 l0 -185 40 0 40 0 0 45 0 45 49 0 c47 0 52 -3 87 -45 36
-44 37 -45 96 -45 l60 0 -42 51 -43 50 30 32 c59 62 68 111 30 168 -38 58 -74
69 -219 69 l-128 0 0 -185z m262 88 c24 -21 23 -58 -2 -83 -18 -18 -31 -20
-96 -18 l-76 3 -4 58 -4 57 82 0 c62 0 86 -4 100 -17z"/>
</g>
</svg>
